# xmcd
#
# Track frame offsets: 
#        150
#        16580
#        27545
#        40003
#        50028
#        62880
#        77113
#        90050
#        102783
#        118308
#        134855
#        146563
#        166138
#        181325
#        199663
#        210010
#        223518
#        237888
#        250780
#        270890
#
# Disc length: 3904 seconds
#
# Revision: 2
# Processed by: cddbd v1.5.2PL0 Copyright (c) Steve Scherf et al.
# Submitted via: ExactAudioCopy v0.99pb5
#
DISCID=0b0f3e14
DTITLE=Various Artist - DANCE PANIC! presents EUROPANIC! VOL.5
DYEAR=2001
DGENRE=Eurobeat
TTITLE0=FOXTER feat. MARK F. - AGADOO
TTITLE1=LAURIE - JINGO DANCE
TTITLE2=ENERGY-GIRLS - ALL AND MY LOVE
TTITLE3=SARAH - YOU ARE ALWAYS ON MY MIND
TTITLE4=BABY ENERGY - BIG BOY
TTITLE5=LADY PRINCESS - COME TO ME
TTITLE6=KEKI - PARAPARA IN THE STREET
TTITLE7=LISA FERRARI - BE MY MUSIC
TTITLE8=DIVINA - LOVE IS A MELODY
TTITLE9=CRUISE 009 - MISSION IMPOSSIBLE
TTITLE10=ROCKET MAN - SPACEMAN
TTITLE11=CINDY COOPER - DAY BY DAY
TTITLE12=OTELLO - STREET BOY
TTITLE13=CHEMICAL BOY - BREAK MY HEART
TTITLE14=DAVID - ROCK MUSIC
TTITLE15=SPIDERBOY - THUNDER OF LOVE
TTITLE16=DJ MOONRAKER - CALLING FROM TOKYO
TTITLE17=LAURIE - JINGO DANCE (Euro Tech Mix)
TTITLE18=CHEMICAL BOY - COSMIC FIGHTER (A to Z Mix)
TTITLE19=FOXTER feat. MARK F. - AGADOO (Rising High Mix)
EXTD=YEAR: 2001
EXTT0=
EXTT1=
EXTT2=
EXTT3=
EXTT4=
EXTT5=
EXTT6=
EXTT7=
EXTT8=
EXTT9=
EXTT10=
EXTT11=
EXTT12=
EXTT13=
EXTT14=
EXTT15=
EXTT16=
EXTT17=
EXTT18=
EXTT19=
PLAYORDER=
